<svg id="mermaid-1634452476991" width="100%" xmlns="http://www.w3.org/2000/svg" xmlns:xlink="http://www.w3.org/1999/xlink" height="292" style="max-width: 364px;" viewBox="-20 -20 364 292"><style>#mermaid-1634452476991{font-family:"trebuchet ms",verdana,arial,sans-serif;font-size:16px;fill:#333;}#mermaid-1634452476991 .error-icon{fill:#552222;}#mermaid-1634452476991 .error-text{fill:#552222;stroke:#552222;}#mermaid-1634452476991 .edge-thickness-normal{stroke-width:2px;}#mermaid-1634452476991 .edge-thickness-thick{stroke-width:3.5px;}#mermaid-1634452476991 .edge-pattern-solid{stroke-dasharray:0;}#mermaid-1634452476991 .edge-pattern-dashed{stroke-dasharray:3;}#mermaid-1634452476991 .edge-pattern-dotted{stroke-dasharray:2;}#mermaid-1634452476991 .marker{fill:#333333;stroke:#333333;}#mermaid-1634452476991 .marker.cross{stroke:#333333;}#mermaid-1634452476991 svg{font-family:"trebuchet ms",verdana,arial,sans-serif;font-size:16px;}#mermaid-1634452476991 g.classGroup text{fill:#9370DB;fill:#131300;stroke:none;font-family:"trebuchet ms",verdana,arial,sans-serif;font-size:10px;}#mermaid-1634452476991 g.classGroup text .title{font-weight:bolder;}#mermaid-1634452476991 .classTitle{font-weight:bolder;}#mermaid-1634452476991 .node rect,#mermaid-1634452476991 .node circle,#mermaid-1634452476991 .node ellipse,#mermaid-1634452476991 .node polygon,#mermaid-1634452476991 .node path{fill:#ECECFF;stroke:#9370DB;stroke-width:1px;}#mermaid-1634452476991 .divider{stroke:#9370DB;stroke:1;}#mermaid-1634452476991 g.clickable{cursor:pointer;}#mermaid-1634452476991 g.classGroup rect{fill:#ECECFF;stroke:#9370DB;}#mermaid-1634452476991 g.classGroup line{stroke:#9370DB;stroke-width:1;}#mermaid-1634452476991 .classLabel .box{stroke:none;stroke-width:0;fill:#ECECFF;opacity:0.5;}#mermaid-1634452476991 .classLabel .label{fill:#9370DB;font-size:10px;}#mermaid-1634452476991 .relation{stroke:#333333;stroke-width:1;fill:none;}#mermaid-1634452476991 .dashed-line{stroke-dasharray:3;}#mermaid-1634452476991 #compositionStart,#mermaid-1634452476991 .composition{fill:#333333 !important;stroke:#333333 !important;stroke-width:1;}#mermaid-1634452476991 #compositionEnd,#mermaid-1634452476991 .composition{fill:#333333 !important;stroke:#333333 !important;stroke-width:1;}#mermaid-1634452476991 #dependencyStart,#mermaid-1634452476991 .dependency{fill:#333333 !important;stroke:#333333 !important;stroke-width:1;}#mermaid-1634452476991 #dependencyStart,#mermaid-1634452476991 .dependency{fill:#333333 !important;stroke:#333333 !important;stroke-width:1;}#mermaid-1634452476991 #extensionStart,#mermaid-1634452476991 .extension{fill:#333333 !important;stroke:#333333 !important;stroke-width:1;}#mermaid-1634452476991 #extensionEnd,#mermaid-1634452476991 .extension{fill:#333333 !important;stroke:#333333 !important;stroke-width:1;}#mermaid-1634452476991 #aggregationStart,#mermaid-1634452476991 .aggregation{fill:#ECECFF !important;stroke:#333333 !important;stroke-width:1;}#mermaid-1634452476991 #aggregationEnd,#mermaid-1634452476991 .aggregation{fill:#ECECFF !important;stroke:#333333 !important;stroke-width:1;}#mermaid-1634452476991 .edgeTerminals{font-size:11px;}#mermaid-1634452476991:root{--mermaid-font-family:"trebuchet ms",verdana,arial,sans-serif;}#mermaid-1634452476991 class{fill:apa;}</style><g></g><defs><marker id="extensionStart" class="extension" refX="0" refY="7" markerWidth="190" markerHeight="240" orient="auto"><path d="M 1,7 L18,13 V 1 Z"></path></marker></defs><defs><marker id="extensionEnd" refX="19" refY="7" markerWidth="20" markerHeight="28" orient="auto"><path d="M 1,1 V 13 L18,7 Z"></path></marker></defs><defs><marker id="compositionStart" class="extension" refX="0" refY="7" markerWidth="190" markerHeight="240" orient="auto"><path d="M 18,7 L9,13 L1,7 L9,1 Z"></path></marker></defs><defs><marker id="compositionEnd" refX="19" refY="7" markerWidth="20" markerHeight="28" orient="auto"><path d="M 18,7 L9,13 L1,7 L9,1 Z"></path></marker></defs><defs><marker id="aggregationStart" class="extension" refX="0" refY="7" markerWidth="190" markerHeight="240" orient="auto"><path d="M 18,7 L9,13 L1,7 L9,1 Z"></path></marker></defs><defs><marker id="aggregationEnd" refX="19" refY="7" markerWidth="20" markerHeight="28" orient="auto"><path d="M 18,7 L9,13 L1,7 L9,1 Z"></path></marker></defs><defs><marker id="dependencyStart" class="extension" refX="0" refY="7" markerWidth="190" markerHeight="240" orient="auto"><path d="M 5,7 L9,13 L1,7 L9,1 Z"></path></marker></defs><defs><marker id="dependencyEnd" refX="19" refY="7" markerWidth="20" markerHeight="28" orient="auto"><path d="M 18,7 L9,13 L14,7 L9,1 Z"></path></marker></defs><g id="classid-WorkCalendar-0" class="classGroup" transform="translate(0,0 )"><rect x="0" y="0" width="162" height="71" class=" "></rect><text y="15" x="0"><tspan class="title" x="46.5">WorkCalendar</tspan></text><line x1="0" y1="21" y2="21" x2="162"></line><text x="5" y="31" fill="white" class="classText"><tspan x="5">- from: LocalDate</tspan><tspan x="5" dy="10">- to: LocalDate</tspan><tspan x="5" dy="10">- location: String</tspan><tspan x="5" dy="10">- specialDays: Set&lt;SpecialDay&gt;</tspan></text><line x1="0" y1="67" y2="67" x2="162"></line><text x="5" y="82" fill="white" class="classText"></text></g><g id="classid-SpecialDay-1" class="classGroup" transform="translate(48,125.5 )"><rect x="0" y="0" width="66" height="31" class=" "></rect><text y="15" x="0"><tspan class="title" x="5">SpecialDay</tspan></text><line x1="0" y1="22" y2="22" x2="66"></line><text x="5" y="32" fill="white" class="classText"></text><line x1="0" y1="27" y2="27" x2="66"></line><text x="5" y="42" fill="white" class="classText"></text></g><g id="classid-DayType-2" class="classGroup" transform="translate(20,211 )"><rect x="0" y="0" width="122" height="41" class=" "></rect><text y="15" x="0"><tspan x="26">«enumeration»</tspan><tspan class="title" dy="10" x="40">DayType</tspan></text><line x1="0" y1="32" y2="32" x2="122"></line><text x="5" y="42" fill="white" class="classText"></text><line x1="0" y1="37" y2="37" x2="122"></line><text x="5" y="52" fill="white" class="classText"></text></g><g id="classid-Recurrence-3" class="classGroup" transform="translate(212,20.5 )"><rect x="0" y="0" width="67" height="30" class=" "></rect><text y="15" x="0"><tspan class="title" x="5">Recurrence</tspan></text><line x1="0" y1="21" y2="21" x2="67"></line><text x="5" y="31" fill="white" class="classText"></text><line x1="0" y1="26" y2="26" x2="67"></line><text x="5" y="41" fill="white" class="classText"></text></g><g id="classid-RecurrenceUnit-4" class="classGroup" transform="translate(167,121 )"><rect x="0" y="0" width="157" height="40" class=" "></rect><text y="15" x="0"><tspan x="43.5">«enumeration»</tspan><tspan class="title" dy="10" x="40">RecurrenceUnit</tspan></text><line x1="0" y1="31" y2="31" x2="157"></line><text x="5" y="41" fill="white" class="classText"></text><line x1="0" y1="36" y2="36" x2="157"></line><text x="5" y="51" fill="white" class="classText"></text></g><path d="M81,71L81,75.16666666666667C81,79.33333333333333,81,87.66666666666667,81,96.75C81,105.83333333333333,81,115.66666666666667,81,120.58333333333333L81,125.5" id="edge0" class="relation" marker-start="url(#compositionStart)"></path><g class="cardinality"><text class="type1" x="71" y="83.5" fill="black" font-size="6">1</text></g><g class="cardinality"><text class="type2" x="86" y="113" fill="black" font-size="6">*</text></g><path d="M81,156.5L81,161.41666666666666C81,166.33333333333334,81,176.16666666666666,81,185.25C81,194.33333333333334,81,202.66666666666666,81,206.83333333333334L81,211" id="edge1" class="relation"></path><path d="M245.5,50.5L245.5,58.083333333333336C245.5,65.66666666666667,245.5,80.83333333333333,245.5,92.58333333333333C245.5,104.33333333333333,245.5,112.66666666666667,245.5,116.83333333333333L245.5,121" id="edge2" class="relation"></path></svg>